<svg version="1.2" xmlns="http://www.w3.org/2000/svg" viewBox="0 0 403 460" width="175" height="200"><style>.a{fill:#1e6c93}</style><path class="a" d="m98.2 262.3c-6.6 1.4-13.2-2.9-14.5-9.6-1.4-6.7 2.9-13.2 9.6-14.6 40.3-8.3 68.1-6 84.9 7 7.6 5.8 10.5 14.8 7.8 24-6.1 21.1-43.1 42.6-79.1 45.9q-0.6 0.1-1.1 0.1c-6.3 0-11.7-4.8-12.3-11.2-0.7-6.8 4.4-12.8 11.2-13.5 28.4-2.6 52.7-18.9 57-26.7-8-5.2-25.4-9.2-63.5-1.4z"/><path class="a" d="m114.5 153.3c-5.7-3.7-7.3-11.4-3.7-17.1 3.8-5.7 11.4-7.4 17.1-3.7 4.6 3 45.1 29.9 45.1 54.3 0 7.2-3.5 13.5-9.5 17.4-10.4 6.7-26.8 10.3-44.1 10.3-9.4 0-19-1-28.1-3.2-6.6-1.6-10.7-8.3-9.1-14.9 1.6-6.7 8.2-10.8 14.9-9.1 19.5 4.7 40.3 2.4 50.5-2.5-2.7-6-14-19.2-33.1-31.5z"/><path class="a" d="m148.2 95.7c5.6-3.9 13.3-2.5 17.1 3.1 4.2 6 13.6 14.6 21.1 14.1 7.3-0.5 13.4-10.6 16.5-16.5 3-6.1 10.5-8.5 16.6-5.4 6 3.1 8.5 10.5 5.4 16.6-9.6 18.8-22 28.9-36.8 29.9q-1.2 0.1-2.4 0.1c-22.9 0-38.9-22.1-40.7-24.7-3.8-5.6-2.4-13.3 3.2-17.2z"/><path class="a" d="m176.1 373.8q-0.8 0-1.6-0.1c-6.8-0.9-11.6-7.1-10.7-13.8 1-7.8 0.4-11.5 0-12.9-4.7 0-15.9 5.3-21.6 7.9-2.3 1.1-4.5 2.2-6.7 3.1-6.2 2.8-13.5 0-16.3-6.2-2.8-6.3 0-13.6 6.3-16.4 2-0.9 4.1-1.8 6.2-2.9 15.7-7.3 33.5-15.6 46.9-5.8 13.1 9.6 10.5 29.7 9.7 36.3-0.8 6.2-6.1 10.8-12.2 10.8z"/><path class="a" d="m243.5 409.7c-26.4 22.5-60 34.9-93.1 34.9-7.3 0-14.6-0.6-21.7-1.8-37.2-6.3-68.7-28.8-88.8-63.3-28.9-49.8-51.1-137.9-31.5-213.4 19.7-76.1 79-156.7 167.1-165.1 38.4-3.7 102.6 14 123.5 56.6 13.1 26.9 13.3 63.2 1.6 92 8.2-2.8 17-5.4 26.1-8.1 17.7-5.2 36.1-10.6 49.1-17.3 6-3.1 13.5-0.7 16.6 5.3 3.1 6.1 0.7 13.5-5.3 16.7-13.8 7.1-31.3 12.5-48.6 17.6 19.7-0.5 38.2-1.4 49.8-3.7 6.7-1.3 13.2 3 14.5 9.7 1.3 6.7-3 13.2-9.7 14.5-17 3.5-44.5 4-71 4.6q-0.6 0-1.3 0c21 12.5 40.6 33.6 53.3 68.3 17.4 47.7 19.8 138.4 5 190.1-1.5 5.4-6.5 9-11.9 9q-1.7 0-3.4-0.5c-6.5-1.9-10.3-8.7-8.5-15.3 13.2-46 11-132.6-4.4-174.9-22.8-62.3-71.8-71-104.7-69-3.7 0.6-7.5 1-11.5 1q-0.1 0-0.1 0c-13.7 1-19.5-6.9-21.3-10.5-10.8-21.1 18.1-59.1 30.2-71.9 4.6-5 12.5-5.3 17.4-0.6 5 4.7 5.3 12.5 0.6 17.5-14.4 15.3-23.2 32.2-25.4 40.5 2.2-0.2 4.7-0.4 7.3-0.6 11.9-2.3 21.6-9.3 29-21 14.1-22.5 16-58.8 4.4-82.5-15.2-31-67.8-45.8-98.9-42.9-76.2 7.3-128.1 78.9-145.6 146.7-17.1 65.7 1.7 147.8 29 194.8 20.9 35.9 50.4 47.8 71.5 51.4 32.6 5.5 68-4.8 94.7-27.6 20.8-17.8 27.8-54.4 22.2-81.7-3.8 10.1-7 21.1-9.8 30.4l-1.1 3.7c-1.9 6.5-8.8 10.2-15.3 8.3-6.5-1.9-10.3-8.8-8.3-15.3l1-3.7c6.4-21.5 14.3-48.2 27.2-63.9 13.1-16 27-16 34.1-14.5 18.5 3.7 34.7 24.4 44.4 56.8 9.3 30.8 13.6 98.5-2.7 140.6-1.9 4.9-6.6 7.9-11.5 7.9q-2.2 0-4.5-0.9c-6.3-2.5-9.5-9.6-7-16 13.6-35 10.3-97.1 2.1-124.5-7.7-25.3-18.6-38.3-25.6-39.7-2.1-0.5-4.4 0.5-6.8 2.5 18.3 35.7 12.5 98.9-22.4 128.8z"/></svg>