<svg width="1814" height="506" viewBox="0 0 1814 506" fill="none" xmlns="http://www.w3.org/2000/svg">
<path d="M418.514 352.837C431.553 352.837 438.073 345.832 438.073 331.822C438.073 318.103 432.022 311.244 419.921 311.244H412.738V352.837H418.514ZM419.242 300.129C429.628 300.129 437.701 302.88 443.46 308.38C449.252 313.848 452.148 321.695 452.148 331.919C452.148 342.111 449.155 350.006 443.169 355.604C437.183 361.201 428.544 364 417.252 364H399.197V300.129H419.242ZM493.826 334.055C493.793 330.787 492.952 328.247 491.302 326.435C489.652 324.623 487.403 323.717 484.556 323.717C481.741 323.717 479.524 324.623 477.906 326.435C476.289 328.214 475.367 330.754 475.14 334.055H493.826ZM503.581 361.428C498.986 363.725 493.259 364.874 486.4 364.874C478.537 364.874 472.39 362.722 467.957 358.419C463.557 354.083 461.356 347.871 461.356 339.782C461.356 331.693 463.395 325.416 467.472 320.95C471.613 316.485 477.195 314.253 484.216 314.253C491.269 314.253 496.721 316.226 500.572 320.174C504.422 324.121 506.347 329.541 506.347 336.433V342.888H474.849C474.978 346.706 476.095 349.683 478.198 351.818C480.333 353.921 483.278 354.973 487.031 354.973C492.628 354.973 498.145 353.695 503.581 351.139V361.428ZM530.49 365.699V385.501H517.192V315.175H528.015L529.908 321.484H530.49C533.661 316.663 538.207 314.253 544.128 314.253C550.049 314.253 554.644 316.485 557.912 320.95C561.18 325.383 562.814 331.531 562.814 339.393C562.846 347.256 561.148 353.501 557.718 358.127C554.288 362.722 549.726 364.971 544.031 364.874C538.24 364.874 533.726 362.787 530.49 358.613H529.811C530.264 362.851 530.49 365.213 530.49 365.699ZM549.224 339.345C549.224 334.491 548.48 330.884 546.992 328.522C545.503 326.127 543.158 324.93 539.954 324.93C536.751 324.93 534.389 325.949 532.868 327.988C531.348 330.026 530.555 333.359 530.49 337.986V339.393C530.49 344.603 531.267 348.356 532.82 350.653C534.373 352.95 536.848 354.099 540.246 354.099C546.231 354.099 549.224 349.181 549.224 339.345ZM614.149 364H604.83L602.258 357.351H601.918C599.653 360.198 597.34 362.172 594.978 363.272C592.616 364.34 589.526 364.874 585.708 364.874C580.984 364.874 577.279 363.531 574.594 360.845C571.908 358.127 570.565 354.261 570.565 349.246C570.565 344.231 572.345 340.477 575.904 337.986C579.495 335.494 584.996 334.119 592.405 333.86L600.899 333.618V331.482C600.899 326.532 598.359 324.057 593.279 324.057C589.429 324.057 584.85 325.221 579.544 327.551L575.127 318.572C580.725 315.628 586.889 314.156 593.619 314.156C600.381 314.156 605.493 315.612 608.956 318.524C612.418 321.403 614.149 325.723 614.149 331.482V364ZM600.899 345.412V341.383L595.754 341.529C591.839 341.658 588.943 342.37 587.067 343.664C585.19 344.926 584.252 346.868 584.252 349.488C584.252 353.242 586.403 355.118 590.707 355.118C593.813 355.118 596.288 354.245 598.132 352.497C599.977 350.718 600.899 348.356 600.899 345.412ZM655.093 314.253C656.776 314.253 658.264 314.382 659.558 314.641L658.587 327.114C657.487 326.823 656.177 326.677 654.656 326.677C650.385 326.677 647.053 327.778 644.658 329.978C642.296 332.146 641.115 335.203 641.115 339.151V364H627.817V315.175H637.912L639.853 323.377H640.533C642.086 320.595 644.157 318.378 646.745 316.728C649.334 315.078 652.116 314.253 655.093 314.253ZM683.165 348.712C683.165 350.556 683.683 351.947 684.718 352.886C685.754 353.792 687.323 354.245 689.426 354.245C691.529 354.245 694.182 353.743 697.385 352.74V362.641C694.085 364.129 689.895 364.874 684.815 364.874C679.768 364.874 676.014 363.547 673.555 360.894C671.096 358.241 669.867 354.18 669.867 348.712V325.173H663.46V319.543L670.789 315.078L674.672 304.789H683.165V315.175H696.852V325.173H683.165V348.712ZM750.952 339.49V364H737.605V335.462C737.605 331.903 737.007 329.266 735.81 327.551C734.613 325.804 732.768 324.93 730.277 324.93C726.879 324.93 724.404 326.176 722.851 328.667C721.298 331.126 720.522 335.252 720.522 341.043V364H707.223V315.175H717.415L719.211 321.436H719.939C721.233 319.171 723.11 317.407 725.569 316.146C728.06 314.884 730.908 314.253 734.111 314.253C741.456 314.253 746.406 316.647 748.962 321.436H750.176C751.438 319.139 753.347 317.375 755.903 316.146C758.459 314.884 761.355 314.253 764.59 314.253C770.22 314.253 774.426 315.693 777.209 318.572C779.992 321.452 781.383 325.982 781.383 332.162V364H768.036V335.462C768.036 331.903 767.438 329.266 766.24 327.551C765.043 325.804 763.199 324.93 760.708 324.93C757.407 324.93 754.948 326.111 753.33 328.473C751.745 330.803 750.952 334.475 750.952 339.49ZM824.576 334.055C824.543 330.787 823.702 328.247 822.052 326.435C820.402 324.623 818.153 323.717 815.306 323.717C812.491 323.717 810.274 324.623 808.656 326.435C807.039 328.214 806.117 330.754 805.89 334.055H824.576ZM834.331 361.428C829.736 363.725 824.009 364.874 817.15 364.874C809.287 364.874 803.14 362.722 798.707 358.419C794.307 354.083 792.106 347.871 792.106 339.782C792.106 331.693 794.145 325.416 798.222 320.95C802.363 316.485 807.945 314.253 814.966 314.253C822.019 314.253 827.471 316.226 831.322 320.174C835.172 324.121 837.097 329.541 837.097 336.433V342.888H805.599C805.728 346.706 806.845 349.683 808.948 351.818C811.083 353.921 814.028 354.973 817.781 354.973C823.378 354.973 828.895 353.695 834.331 351.139V361.428ZM893.03 332.162V364H879.683V335.462C879.683 331.903 879.052 329.266 877.79 327.551C876.528 325.804 874.539 324.93 871.821 324.93C868.132 324.93 865.447 326.176 863.764 328.667C862.082 331.126 861.24 335.252 861.24 341.043V364H847.942V315.175H858.134L859.93 321.436H860.658C862.114 319.106 864.136 317.327 866.725 316.097C869.345 314.868 872.322 314.253 875.655 314.253C881.349 314.253 885.669 315.79 888.613 318.863C891.558 321.905 893.03 326.338 893.03 332.162ZM921.478 348.712C921.478 350.556 921.995 351.947 923.031 352.886C924.066 353.792 925.635 354.245 927.738 354.245C929.842 354.245 932.495 353.743 935.698 352.74V362.641C932.398 364.129 928.208 364.874 923.128 364.874C918.08 364.874 914.327 363.547 911.868 360.894C909.409 358.241 908.179 354.18 908.179 348.712V325.173H901.773V319.543L909.101 315.078L912.984 304.789H921.478V315.175H935.164V325.173H921.478V348.712ZM999.661 328.57C998.075 326.176 995.519 324.979 991.992 324.979C988.466 324.979 985.91 326.176 984.324 328.57C982.739 330.932 981.946 334.588 981.946 339.539C981.946 344.457 982.755 348.129 984.373 350.556C985.99 352.983 988.547 354.196 992.041 354.196C995.535 354.196 998.075 352.983 999.661 350.556C1001.28 348.129 1002.09 344.457 1002.09 339.539C1002.09 334.588 1001.28 330.932 999.661 328.57ZM992.138 314.253C999.224 314.156 1004.95 316.437 1009.32 321.096C1013.69 325.723 1015.81 331.854 1015.68 339.49C1015.68 347.45 1013.57 353.678 1009.37 358.176C1005.19 362.641 999.37 364.874 991.895 364.874C984.809 364.938 979.082 362.641 974.714 357.982C970.379 353.323 968.259 347.159 968.356 339.49C968.356 331.531 970.427 325.335 974.569 320.902C978.743 316.469 984.599 314.253 992.138 314.253ZM1053.71 315.175V325.173H1042.21V364H1028.86V325.173H1021.53V318.766L1028.86 315.175V311.583C1028.86 306.018 1030.23 301.958 1032.98 299.401C1035.73 296.845 1040.12 295.567 1046.14 295.567C1050.73 295.567 1054.81 296.247 1058.37 297.606L1054.97 307.41C1052.25 306.568 1049.87 306.148 1047.84 306.148C1045.83 306.148 1044.39 306.681 1043.52 307.749C1042.64 308.817 1042.21 310.273 1042.21 312.117V315.175H1053.71ZM1125.92 346.285C1125.92 352.012 1123.85 356.542 1119.71 359.875C1115.57 363.207 1109.94 364.874 1102.82 364.874C1095.7 364.874 1089.54 363.596 1084.33 361.039V348.469C1088.63 350.346 1092.27 351.689 1095.25 352.497C1098.23 353.306 1101.09 353.711 1103.84 353.711C1106.59 353.711 1108.74 353.145 1110.29 352.012C1111.88 350.847 1112.67 349.149 1112.67 346.916C1112.67 345.622 1112.32 344.506 1111.6 343.567C1110.89 342.597 1109.91 341.691 1108.64 340.849C1107.41 339.976 1104.71 338.568 1100.54 336.627C1096.4 334.653 1093.37 332.825 1091.46 331.143C1087.19 327.454 1085.06 322.827 1085.06 317.262C1085.06 311.697 1086.97 307.296 1090.78 304.061C1094.6 300.825 1099.89 299.207 1106.65 299.207C1112.38 299.207 1118.71 300.712 1125.63 303.721L1121.26 314.253C1117.87 312.861 1115.03 311.891 1112.77 311.341C1110.5 310.791 1108.21 310.516 1105.88 310.516C1103.58 310.516 1101.74 311.098 1100.34 312.263C1098.99 313.428 1098.31 314.997 1098.31 316.971C1098.31 319.236 1099.45 321.145 1101.75 322.698C1102.88 323.474 1105.75 324.946 1110.34 327.114C1116.26 329.962 1120.34 332.825 1122.57 335.705C1124.81 338.584 1125.92 342.111 1125.92 346.285ZM1181.21 364H1171.02L1169.22 357.739H1168.49C1167.07 360.036 1165.05 361.8 1162.42 363.029C1159.8 364.259 1156.83 364.874 1153.49 364.874C1147.8 364.874 1143.48 363.353 1140.54 360.311C1137.62 357.238 1136.17 352.805 1136.17 347.013V315.175H1149.47V343.713C1149.47 347.24 1150.1 349.877 1151.36 351.624C1152.62 353.371 1154.61 354.245 1157.33 354.245C1161.05 354.245 1163.74 353.015 1165.39 350.556C1167.07 348.065 1167.91 343.923 1167.91 338.131V315.175H1181.21V364ZM1222.47 314.253C1224.15 314.253 1225.64 314.382 1226.93 314.641L1225.96 327.114C1224.86 326.823 1223.55 326.677 1222.03 326.677C1217.76 326.677 1214.43 327.778 1212.03 329.978C1209.67 332.146 1208.49 335.203 1208.49 339.151V364H1195.19V315.175H1205.29L1207.23 323.377H1207.91C1209.46 320.595 1211.53 318.378 1214.12 316.728C1216.71 315.078 1219.49 314.253 1222.47 314.253ZM1242.22 366.33C1240.57 367.494 1239.75 368.999 1239.75 370.843C1239.75 372.72 1240.62 374.176 1242.37 375.211C1244.15 376.279 1246.62 376.813 1249.79 376.813C1254.55 376.813 1258.29 376.15 1261 374.823C1263.72 373.529 1265.08 371.749 1265.08 369.484C1265.08 367.672 1264.3 366.411 1262.75 365.699C1261.2 364.987 1258.69 364.631 1255.23 364.631H1248.34C1245.94 364.631 1243.9 365.197 1242.22 366.33ZM1277.46 315.175V321.921L1269.79 323.911C1271.18 326.079 1271.88 328.522 1271.88 331.24C1271.88 336.449 1270.05 340.526 1266.39 343.47C1262.77 346.415 1257.7 347.887 1251.2 347.887L1246.83 347.547C1245.44 348.55 1244.75 349.715 1244.75 351.041C1244.75 352.95 1247.2 353.905 1252.12 353.905H1260.42C1265.79 353.905 1269.87 355.054 1272.65 357.351C1275.47 359.648 1276.88 363.029 1276.88 367.494C1276.88 373.189 1274.48 377.606 1269.69 380.744C1264.94 383.915 1258.11 385.501 1249.21 385.501C1242.45 385.501 1237.26 384.32 1233.63 381.958C1230.01 379.596 1228.2 376.263 1228.2 371.96C1228.2 369.015 1229.12 366.556 1230.96 364.582C1232.81 362.609 1235.51 361.185 1239.07 360.311C1237.64 359.697 1236.43 358.742 1235.43 357.448C1234.42 356.121 1233.92 354.649 1233.92 353.031C1233.92 351.414 1234.42 349.99 1235.43 348.76C1236.46 347.498 1238.06 346.237 1240.23 344.975C1237.64 343.81 1235.61 342.014 1234.12 339.587C1232.63 337.128 1231.88 334.265 1231.88 330.997C1231.88 325.658 1233.62 321.533 1237.08 318.621C1240.57 315.709 1245.52 314.253 1251.93 314.253C1253.16 314.253 1254.79 314.382 1256.83 314.641C1258.9 314.9 1260.1 315.078 1260.42 315.175H1277.46ZM1251.93 322.309C1247.04 322.309 1244.6 325.254 1244.6 331.143C1244.6 333.86 1245.22 335.98 1246.44 337.501C1247.71 339.021 1249.53 339.782 1251.93 339.782C1254.36 339.782 1256.17 339.021 1257.36 337.501C1258.56 335.98 1259.16 333.86 1259.16 331.143C1259.16 325.254 1256.75 322.309 1251.93 322.309ZM1314.98 334.055C1314.95 330.787 1314.11 328.247 1312.46 326.435C1310.81 324.623 1308.56 323.717 1305.71 323.717C1302.9 323.717 1300.68 324.623 1299.06 326.435C1297.44 328.214 1296.52 330.754 1296.3 334.055H1314.98ZM1324.74 361.428C1320.14 363.725 1314.42 364.874 1307.56 364.874C1299.69 364.874 1293.55 362.722 1289.11 358.419C1284.71 354.083 1282.51 347.871 1282.51 339.782C1282.51 331.693 1284.55 325.416 1288.63 320.95C1292.77 316.485 1298.35 314.253 1305.37 314.253C1312.43 314.253 1317.88 316.226 1321.73 320.174C1325.58 324.121 1327.5 329.541 1327.5 336.433V342.888H1296.01C1296.13 346.706 1297.25 349.683 1299.35 351.818C1301.49 353.921 1304.43 354.973 1308.19 354.973C1313.78 354.973 1319.3 353.695 1324.74 351.139V361.428ZM1365.62 314.253C1367.31 314.253 1368.8 314.382 1370.09 314.641L1369.12 327.114C1368.02 326.823 1366.71 326.677 1365.19 326.677C1360.92 326.677 1357.58 327.778 1355.19 329.978C1352.83 332.146 1351.65 335.203 1351.65 339.151V364H1338.35V315.175H1348.44L1350.38 323.377H1351.06C1352.62 320.595 1354.69 318.378 1357.28 316.728C1359.86 315.078 1362.65 314.253 1365.62 314.253ZM1381.76 385.501C1379.43 385.501 1377.18 385.258 1375.01 384.772V374.192C1376.69 374.548 1378.44 374.726 1380.25 374.726C1385.17 374.726 1388.6 371.83 1390.54 366.038L1391.37 363.66L1371.95 315.175H1386.56L1395.73 342.645C1396.54 344.942 1397.09 347.774 1397.38 351.139H1397.63C1397.95 348.162 1398.58 345.331 1399.52 342.645L1408.55 315.175H1422.82L1402.19 370.261C1400.28 375.276 1397.58 379.062 1394.08 381.618C1390.59 384.206 1386.48 385.501 1381.76 385.501ZM528.274 467H521.317V424.42H528.274V444.739C530.323 442.237 532.211 440.004 533.936 438.041L545.455 424.42H553.382C546.393 432.616 541.055 438.84 537.366 443.089L553.803 467H545.746L532.383 447.716L528.274 451.081V467ZM565.558 434.806V467H558.698V434.806H565.558ZM565.978 426.232C565.978 427.418 565.644 428.345 564.975 429.014C564.307 429.683 563.357 430.017 562.128 430.017C560.92 430.017 559.982 429.683 559.313 429.014C558.644 428.345 558.31 427.418 558.31 426.232C558.31 425.024 558.644 424.096 559.313 423.449C559.982 422.78 560.92 422.446 562.128 422.446C563.357 422.446 564.307 422.78 564.975 423.449C565.644 424.096 565.978 425.024 565.978 426.232ZM595.837 462.794C593.637 465.986 590.477 467.582 586.357 467.582C582.237 467.582 579.044 466.126 576.779 463.214C574.536 460.281 573.414 456.193 573.414 450.951C573.414 445.688 574.547 441.579 576.812 438.624C579.098 435.69 582.312 434.223 586.454 434.223C590.595 434.223 593.766 435.787 595.966 438.915H596.322C595.999 436.585 595.837 434.752 595.837 433.415V421.702H602.696V467H597.358L596.16 462.794H595.837ZM587.974 439.789C585.558 439.789 583.703 440.77 582.409 442.733C581.115 444.674 580.468 447.446 580.468 451.049C580.468 454.651 581.104 457.39 582.377 459.267C583.649 461.122 585.612 462.05 588.266 462.05C590.919 462.05 592.882 461.262 594.154 459.688C595.449 458.091 596.117 455.524 596.16 451.987V451.016C596.16 446.982 595.492 444.103 594.154 442.377C592.817 440.651 590.757 439.789 587.974 439.789ZM640.792 446.001V467H633.9V447.198C633.9 444.696 633.393 442.841 632.379 441.633C631.387 440.403 629.813 439.789 627.656 439.789C624.765 439.789 622.651 440.651 621.314 442.377C619.976 444.103 619.308 446.961 619.308 450.951V467H612.448V434.806H617.819L618.758 439.012H619.114C620.084 437.481 621.454 436.305 623.223 435.485C625.013 434.644 627.008 434.223 629.209 434.223C636.931 434.223 640.792 438.149 640.792 446.001ZM668.281 441.471C667.051 440.091 665.336 439.4 663.136 439.4C660.936 439.4 659.189 440.091 657.895 441.471C656.6 442.852 655.824 444.858 655.565 447.489H670.19C670.147 444.858 669.51 442.852 668.281 441.471ZM664.398 467.582C659.394 467.582 655.479 466.116 652.653 463.182C649.827 460.248 648.414 456.193 648.414 451.016C648.414 445.839 649.719 441.752 652.329 438.753C654.961 435.733 658.477 434.223 662.877 434.223C667.299 434.223 670.74 435.518 673.199 438.106C675.679 440.651 676.92 444.2 676.92 448.751V452.44H655.468C655.554 455.568 656.395 457.973 657.992 459.655C659.588 461.338 661.831 462.179 664.722 462.179C668.238 462.179 671.764 461.402 675.302 459.849V465.415C672.196 466.86 668.561 467.582 664.398 467.582ZM684.287 481.334C682.777 481.334 681.311 481.172 679.887 480.848V475.413C680.944 475.65 682.119 475.768 683.414 475.768C686.736 475.768 689.054 473.859 690.37 470.041L691.567 467L678.625 434.806H686.067L692.635 453.055C693.627 455.643 694.285 458.091 694.609 460.399H694.835C694.986 459.321 695.353 457.886 695.935 456.096C696.518 454.284 698.945 447.187 703.215 434.806H710.593L696.809 471.271C694.307 477.979 690.133 481.334 684.287 481.334ZM748.07 430.405V467H741.113V430.405H728.591V424.42H760.591V430.405H748.07ZM779.725 434.223C781.106 434.223 782.238 434.321 783.123 434.515L782.476 440.889C781.462 440.652 780.448 440.533 779.434 440.533C776.716 440.533 774.495 441.428 772.769 443.218C771.086 445.009 770.245 447.328 770.245 450.175V467H763.386V434.806H768.757L769.663 440.468H769.986C771.086 438.527 772.489 437.006 774.193 435.906C775.918 434.784 777.763 434.223 779.725 434.223ZM812.992 467H808.106L806.747 462.503H806.488C804.935 464.465 803.371 465.803 801.797 466.515C800.243 467.226 798.227 467.582 795.746 467.582C792.575 467.582 790.105 466.73 788.337 465.026C786.568 463.301 785.683 460.831 785.683 457.617C785.683 451.167 790.677 447.791 800.664 447.489L806.197 447.328V445.613C806.197 443.542 805.712 442 804.741 440.986C803.792 439.972 802.314 439.465 800.308 439.465C797.741 439.465 794.7 440.274 791.184 441.892L788.984 437.006C792.564 435.151 796.425 434.223 800.567 434.223C804.73 434.223 807.836 435.129 809.886 436.941C811.956 438.732 812.992 441.525 812.992 445.322V467ZM792.802 457.843C792.802 459.289 793.233 460.399 794.096 461.176C794.959 461.952 796.231 462.341 797.914 462.341C800.394 462.341 802.39 461.65 803.9 460.27C805.41 458.889 806.165 456.937 806.165 454.414V451.631L802.023 451.793C798.787 451.922 796.436 452.472 794.969 453.443C793.524 454.392 792.802 455.859 792.802 457.843ZM850.855 446.001V467H843.963V447.198C843.963 444.696 843.456 442.841 842.442 441.633C841.45 440.403 839.875 439.789 837.718 439.789C834.828 439.789 832.714 440.651 831.376 442.377C830.039 444.103 829.37 446.961 829.37 450.951V467H822.511V434.806H827.882L828.82 439.012H829.176C830.147 437.481 831.516 436.305 833.285 435.485C835.076 434.644 837.071 434.223 839.271 434.223C846.993 434.223 850.855 438.149 850.855 446.001ZM878.473 450.887C880.845 452.526 882.032 454.877 882.032 457.94C882.032 461.003 880.878 463.376 878.57 465.059C876.283 466.741 873.005 467.582 868.734 467.582C864.484 467.582 861.044 466.935 858.412 465.641V459.72C862.208 461.467 865.735 462.341 868.992 462.341C873.199 462.341 875.302 461.068 875.302 458.523C875.28 457.358 874.784 456.43 873.813 455.74C872.843 455.028 870.858 454.058 867.86 452.828C864.15 451.383 861.637 449.948 860.321 448.525C859.005 447.08 858.347 445.214 858.347 442.927C858.347 440.166 859.458 438.031 861.68 436.521C863.923 434.989 866.932 434.223 870.707 434.223C874.482 434.223 878.084 434.989 881.514 436.521L879.282 441.665C875.852 440.22 872.929 439.497 870.513 439.497C866.911 439.497 865.11 440.533 865.11 442.604C865.11 443.639 865.573 444.502 866.501 445.192C867.45 445.861 869.391 446.767 872.325 447.91C875.28 449.053 877.329 450.046 878.473 450.887ZM896.245 439.109C898.381 435.852 901.519 434.223 905.661 434.223C909.802 434.223 912.995 435.69 915.238 438.624C917.481 441.536 918.603 445.624 918.603 450.887C918.603 456.128 917.449 460.227 915.141 463.182C912.855 466.116 909.684 467.582 905.628 467.582C901.595 467.582 898.467 466.116 896.245 463.182H895.825C896.105 465.792 896.245 467.442 896.245 468.132V481.334H889.386V434.806H894.919C895.091 435.475 895.415 436.909 895.889 439.109H896.245ZM904.172 461.985C906.545 461.985 908.368 461.014 909.641 459.073C910.935 457.131 911.582 454.36 911.582 450.757C911.582 447.155 910.946 444.426 909.673 442.571C908.4 440.716 906.47 439.789 903.881 439.789C901.293 439.789 899.373 440.587 898.122 442.183C896.871 443.779 896.245 446.325 896.245 449.819V450.854C896.245 454.759 896.871 457.595 898.122 459.364C899.373 461.111 901.39 461.985 904.172 461.985ZM933.37 421.702V467H926.511V421.702H933.37ZM968.179 467H963.293L961.935 462.503H961.676C960.123 464.465 958.559 465.803 956.984 466.515C955.431 467.226 953.414 467.582 950.934 467.582C947.763 467.582 945.293 466.73 943.524 465.026C941.755 463.301 940.871 460.831 940.871 457.617C940.871 451.167 945.864 447.791 955.852 447.489L961.384 447.328V445.613C961.384 443.542 960.899 442 959.928 440.986C958.979 439.972 957.502 439.465 955.496 439.465C952.929 439.465 949.887 440.274 946.371 441.892L944.171 437.006C947.752 435.151 951.613 434.223 955.755 434.223C959.918 434.223 963.024 435.129 965.073 436.941C967.144 438.732 968.179 441.525 968.179 445.322V467ZM947.989 457.843C947.989 459.289 948.421 460.399 949.283 461.176C950.146 461.952 951.419 462.341 953.101 462.341C955.582 462.341 957.577 461.65 959.087 460.27C960.597 458.889 961.352 456.937 961.352 454.414V451.631L957.211 451.793C953.975 451.922 951.624 452.472 950.157 453.443C948.712 454.392 947.989 455.859 947.989 457.843ZM1006.04 446.001V467H999.15V447.198C999.15 444.696 998.643 442.841 997.629 441.633C996.637 440.403 995.063 439.789 992.906 439.789C990.015 439.789 987.901 440.651 986.564 442.377C985.226 444.103 984.558 446.961 984.558 450.951V467H977.698V434.806H983.069L984.008 439.012H984.364C985.334 437.481 986.704 436.305 988.473 435.485C990.263 434.644 992.258 434.223 994.459 434.223C1002.18 434.223 1006.04 438.149 1006.04 446.001ZM1023.08 457.229C1023.08 458.825 1023.48 460.033 1024.28 460.852C1025.1 461.65 1026.26 462.05 1027.77 462.05C1029.3 462.05 1030.91 461.791 1032.59 461.273V466.418C1030.76 467.194 1028.55 467.582 1025.96 467.582C1019.47 467.582 1016.22 464.163 1016.22 457.326V439.983H1011.82V436.941L1016.54 434.45L1018.87 427.623H1023.08V434.806H1032.27V439.983H1023.08V457.229ZM1063.9 430.244V445.224H1067.59C1071.17 445.224 1073.79 444.61 1075.45 443.38C1077.11 442.129 1077.94 440.231 1077.94 437.686C1077.94 435.119 1077.19 433.242 1075.68 432.056C1074.19 430.848 1071.87 430.244 1068.72 430.244H1063.9ZM1069.21 424.42C1074.49 424.42 1078.46 425.509 1081.11 427.688C1083.79 429.845 1085.12 433.102 1085.12 437.459C1085.12 441.795 1083.67 445.149 1080.76 447.522C1077.87 449.895 1073.72 451.081 1068.33 451.081H1063.9V467H1056.94V424.42H1069.21ZM1109.23 434.223C1110.61 434.223 1111.74 434.321 1112.62 434.515L1111.98 440.889C1110.96 440.652 1109.95 440.533 1108.93 440.533C1106.22 440.533 1103.99 441.428 1102.27 443.218C1100.59 445.009 1099.75 447.328 1099.75 450.175V467H1092.89V434.806H1098.26L1099.16 440.468H1099.49C1100.59 438.527 1101.99 437.006 1103.69 435.906C1105.42 434.784 1107.26 434.223 1109.23 434.223ZM1130.75 439.789C1125.31 439.789 1122.59 443.488 1122.59 450.887C1122.59 458.285 1125.33 461.985 1130.81 461.985C1136.25 461.985 1138.96 458.285 1138.96 450.887C1138.96 443.488 1136.23 439.789 1130.75 439.789ZM1115.54 450.854C1115.54 445.591 1116.88 441.504 1119.55 438.592C1122.23 435.679 1125.95 434.223 1130.71 434.223C1135.48 434.223 1139.22 435.733 1141.94 438.753C1144.66 441.752 1146.02 445.828 1146.02 450.984C1146.02 456.139 1144.67 460.194 1141.97 463.15C1139.28 466.105 1135.52 467.582 1130.71 467.582C1126.18 467.669 1122.51 466.159 1119.68 463.053C1116.86 459.925 1115.47 455.859 1115.54 450.854ZM1162.2 466.871C1160.24 466.871 1158.67 467.334 1157.51 468.262C1156.37 469.189 1155.79 470.408 1155.79 471.918C1155.79 473.45 1156.45 474.614 1157.77 475.413C1159.11 476.211 1160.98 476.61 1163.4 476.61C1167.02 476.61 1169.77 476.081 1171.65 475.024C1173.53 473.989 1174.46 472.565 1174.46 470.753C1174.46 469.373 1173.96 468.381 1172.94 467.777C1171.95 467.173 1170.1 466.871 1167.38 466.871H1162.2ZM1181.1 434.806V438.559L1175.6 439.562C1176.76 441.18 1177.34 443.067 1177.34 445.224C1177.34 448.525 1176.19 451.135 1173.88 453.055C1171.6 454.953 1168.45 455.902 1164.43 455.902C1163.33 455.902 1162.41 455.826 1161.65 455.675C1160.16 456.581 1159.42 457.649 1159.42 458.879C1159.42 459.634 1159.77 460.194 1160.49 460.561C1161.22 460.906 1162.48 461.079 1164.27 461.079H1169.87C1173.41 461.079 1176.1 461.834 1177.96 463.344C1179.81 464.854 1180.74 467.043 1180.74 469.912C1180.74 473.557 1179.23 476.372 1176.21 478.357C1173.19 480.341 1168.84 481.334 1163.17 481.334C1158.81 481.334 1155.47 480.557 1153.14 479.004C1150.83 477.451 1149.68 475.24 1149.68 472.371C1149.68 470.387 1150.29 468.715 1151.52 467.356C1152.77 466.019 1154.53 465.08 1156.8 464.541C1155.89 464.153 1155.14 463.527 1154.53 462.664C1153.95 461.801 1153.66 460.842 1153.66 459.785C1153.66 458.728 1153.97 457.789 1154.6 456.97C1155.24 456.128 1156.28 455.276 1157.7 454.414C1156 453.68 1154.63 452.505 1153.59 450.887C1152.58 449.247 1152.07 447.36 1152.07 445.224C1152.07 441.73 1153.17 439.023 1155.37 437.103C1157.6 435.183 1160.75 434.223 1164.82 434.223C1165.71 434.223 1166.66 434.288 1167.67 434.418C1168.7 434.525 1169.46 434.655 1169.93 434.806H1181.1ZM1164.76 438.624C1162.77 438.624 1161.27 439.185 1160.26 440.306C1159.25 441.428 1158.74 443.035 1158.74 445.127C1158.74 447.198 1159.26 448.784 1160.29 449.884C1161.33 450.962 1162.82 451.502 1164.76 451.502C1168.7 451.502 1170.68 449.355 1170.68 445.063C1170.68 440.77 1168.7 438.624 1164.76 438.624ZM1203.41 434.223C1204.79 434.223 1205.93 434.321 1206.81 434.515L1206.16 440.889C1205.15 440.652 1204.14 440.533 1203.12 440.533C1200.4 440.533 1198.18 441.428 1196.46 443.218C1194.77 445.009 1193.93 447.328 1193.93 450.175V467H1187.07V434.806H1192.44L1193.35 440.468H1193.67C1194.77 438.527 1196.18 437.006 1197.88 435.906C1199.61 434.784 1201.45 434.223 1203.41 434.223ZM1236.68 467H1231.79L1230.43 462.503H1230.18C1228.62 464.465 1227.06 465.803 1225.48 466.515C1223.93 467.226 1221.91 467.582 1219.43 467.582C1216.26 467.582 1213.79 466.73 1212.02 465.026C1210.26 463.301 1209.37 460.831 1209.37 457.617C1209.37 451.167 1214.36 447.791 1224.35 447.489L1229.88 447.328V445.613C1229.88 443.542 1229.4 442 1228.43 440.986C1227.48 439.972 1226 439.465 1224 439.465C1221.43 439.465 1218.39 440.274 1214.87 441.892L1212.67 437.006C1216.25 435.151 1220.11 434.223 1224.25 434.223C1228.42 434.223 1231.52 435.129 1233.57 436.941C1235.64 438.732 1236.68 441.525 1236.68 445.322V467ZM1216.49 457.843C1216.49 459.289 1216.92 460.399 1217.78 461.176C1218.65 461.952 1219.92 462.341 1221.6 462.341C1224.08 462.341 1226.08 461.65 1227.59 460.27C1229.1 458.889 1229.85 456.937 1229.85 454.414V451.631L1225.71 451.793C1222.47 451.922 1220.12 452.472 1218.66 453.443C1217.21 454.392 1216.49 455.859 1216.49 457.843ZM1273.34 449.948V467H1266.49V447.133C1266.49 444.653 1266.01 442.809 1265.06 441.601C1264.13 440.393 1262.68 439.789 1260.69 439.789C1258.04 439.789 1256.1 440.662 1254.87 442.41C1253.66 444.135 1253.06 446.982 1253.06 450.951V467H1246.2V434.806H1251.57L1252.51 439.012H1252.86C1253.77 437.481 1255.06 436.305 1256.75 435.485C1258.43 434.644 1260.31 434.223 1262.38 434.223C1267.32 434.223 1270.59 435.906 1272.21 439.271H1272.67C1273.61 437.675 1274.95 436.434 1276.68 435.55C1278.42 434.666 1280.41 434.223 1282.63 434.223C1286.43 434.223 1289.21 435.194 1290.98 437.135C1292.77 439.055 1293.66 442.01 1293.66 446.001V467H1286.84V447.133C1286.84 442.237 1284.91 439.789 1281.05 439.789C1278.39 439.789 1276.44 440.619 1275.19 442.28C1273.96 443.919 1273.34 446.476 1273.34 449.948Z" fill="#01447B"/>
<g clip-path="url(#clip0_1_7)">
<mask id="mask0_1_7" style="mask-type:luminance" maskUnits="userSpaceOnUse" x="0" y="0" width="1814" height="339">
<path d="M1814 0H0V339H1814V0Z" fill="white"/>
</mask>
<g mask="url(#mask0_1_7)">
<path d="M1531.48 164.776C1542.32 159.219 1558.98 152.828 1570.37 150.049C1581.49 147.27 1583.99 146.715 1595.66 144.77C1607.32 143.102 1627.6 141.157 1645.1 141.157H1655.66C1691.22 142.269 1728.16 150.327 1758.17 163.665V157.274C1723.16 140.602 1678.71 130.598 1631.21 129.209C1627.05 129.209 1623.16 128.931 1618.99 128.931C1607.32 128.931 1595.93 129.487 1584.82 130.32C1584.82 130.32 1567.04 131.988 1556.49 133.933C1545.93 135.878 1535.37 138.101 1525.93 140.88C1519.27 142.825 1513.15 145.048 1504.54 148.66C1497.32 151.716 1490.37 154.773 1483.15 158.941C1464.54 170.334 1453.15 184.227 1452.59 199.51V200.899C1452.59 210.905 1456.76 220.631 1465.65 229.798C1492.04 258.418 1554.54 278.144 1624.83 280.092C1629.27 280.092 1633.71 280.372 1637.88 280.372C1684.83 280.372 1728.16 272.87 1758.44 259.252V252.583H1758.17C1729.55 263.142 1692.88 269.255 1658.44 269.255C1655.66 269.255 1652.88 269.255 1650.1 268.974C1589.27 267.307 1535.37 250.079 1512.6 225.627C1505.37 217.846 1501.76 209.788 1501.76 201.452V200.066C1502.04 195.064 1503.15 190.062 1506.21 185.894C1509.26 181.446 1511.48 178.667 1516.77 173.668C1520.93 171.167 1522.87 169.222 1531.48 164.776Z" fill="#00477F"/>
</g>
<mask id="mask1_1_7" style="mask-type:luminance" maskUnits="userSpaceOnUse" x="0" y="0" width="1814" height="339">
<path d="M1814 0H0V339H1814V0Z" fill="white"/>
</mask>
<g mask="url(#mask1_1_7)">
<path d="M1555.37 110.592C1548.15 113.093 1540.93 117.261 1539.81 117.816C1530.65 123.93 1525.37 131.71 1523.98 140.88C1523.7 142.269 1523.7 143.658 1523.7 145.325C1523.7 179.781 1580.37 220.906 1654.27 239.245C1675.1 244.525 1696.77 247.025 1717.61 247.025C1730.66 247.025 1742.89 245.914 1754.55 243.966L1755.66 243.688C1756.77 243.408 1757.89 243.408 1758.72 243.133V248.968C1758.17 249.248 1757.89 249.248 1757.05 249.524C1743.44 253.136 1727.33 255.081 1709.83 255.081C1685.38 255.081 1657.88 251.469 1629.82 244.522C1544.26 223.404 1478.7 175.333 1478.7 134.764C1478.7 133.096 1478.98 131.429 1478.98 129.762C1480.65 118.925 1487.04 109.755 1497.87 102.253C1506.48 96.4178 1517.87 91.9719 1530.93 89.1932C1530.93 89.1932 1541.21 86.9702 1550.09 85.8588C1558.98 85.0251 1569.54 85.0251 1569.54 85.0251H1574.26C1598.15 85.0251 1624.54 88.3596 1651.77 95.0284C1691.77 105.032 1728.99 121.704 1758.72 142.544V150.049C1740.66 137.545 1710.94 120.873 1672.88 111.425C1649.27 105.59 1626.49 102.812 1605.93 102.812C1593.99 102.812 1582.87 103.923 1572.6 105.868C1572.32 105.868 1562.32 108.091 1555.37 110.592Z" fill="#569FD3"/>
</g>
<mask id="mask2_1_7" style="mask-type:luminance" maskUnits="userSpaceOnUse" x="0" y="0" width="1814" height="339">
<path d="M1814 0H0V339H1814V0Z" fill="white"/>
</mask>
<g mask="url(#mask2_1_7)">
<path d="M1683.44 65.2992C1645.38 43.3476 1607.04 31.1213 1578.15 31.1213C1568.15 31.1213 1558.99 32.5107 1551.76 35.5672C1540.65 40.0131 1533.71 47.5156 1530.65 58.3525C1529.82 61.6869 1529.26 65.5771 1529.26 69.4672C1529.26 75.0246 1530.65 81.9713 1532.32 86.973C1534.54 94.4754 1537.87 102.811 1546.49 116.705C1561.48 141.157 1601.49 180.615 1644.55 205.623C1683.44 228.13 1720.94 240.079 1752.89 240.079H1753.44C1755.67 240.079 1757.33 240.079 1758.44 239.798V234.241L1752.05 233.963C1725.11 232.018 1694 221.737 1666.49 205.895C1618.99 178.392 1582.6 139.768 1570.93 108.091C1569.26 103.089 1567.87 97.8099 1567.32 93.6418C1567.04 91.9746 1566.48 85.3058 1568.15 79.4705C1570.65 70.8566 1576.49 64.4656 1585.65 60.5754C1592.04 58.0746 1599.54 56.6853 1608.16 56.6853C1633.16 56.6853 1665.94 67.2443 1698.99 86.1394C1720.11 98.3656 1740.38 115.038 1758.17 134.211V124.485C1737.33 102.256 1711.49 81.6935 1683.44 65.2992Z" fill="#ACD4F0"/>
</g>
<mask id="mask3_1_7" style="mask-type:luminance" maskUnits="userSpaceOnUse" x="0" y="0" width="1814" height="339">
<path d="M1814 0H0V339H1814V0Z" fill="white"/>
</mask>
<g mask="url(#mask3_1_7)">
<path d="M486.419 247.025C472.251 247.025 471.973 240.912 471.973 234.241V173.668C471.973 167.552 477.529 162.275 485.03 161.995V156.437H430.026V161.995C437.527 162.275 443.083 167.277 443.083 173.668V238.967C443.083 247.303 439.194 250.638 430.026 250.916V256.473H517.809L522.254 219.239H514.754C515.032 219.239 510.309 247.025 486.419 247.025Z" fill="#00477F"/>
</g>
<mask id="mask4_1_7" style="mask-type:luminance" maskUnits="userSpaceOnUse" x="0" y="0" width="1814" height="339">
<path d="M1814 0H0V339H1814V0Z" fill="white"/>
</mask>
<g mask="url(#mask4_1_7)">
<path d="M581.98 256.473V250.916C572.813 250.638 568.924 247.303 568.924 238.967V173.668C568.924 167.555 574.48 162.275 581.98 161.998V156.44H526.421V161.998C533.922 162.275 539.477 167.277 539.477 173.668V238.967C539.477 247.303 535.588 250.638 526.421 250.916V256.473H581.98Z" fill="#00477F"/>
</g>
<mask id="mask5_1_7" style="mask-type:luminance" maskUnits="userSpaceOnUse" x="0" y="0" width="1814" height="339">
<path d="M1814 0H0V339H1814V0Z" fill="white"/>
</mask>
<g mask="url(#mask5_1_7)">
<path d="M581.98 207.012C581.98 175.057 606.704 153.939 640.873 154.217C675.041 154.217 695.876 177.558 695.876 206.457C695.876 242.86 665.041 260.085 638.095 260.085C622.816 260.085 581.98 249.248 581.98 207.012ZM639.761 250.082C648.095 250.082 663.096 244.525 663.096 205.623C663.096 179.225 653.651 163.665 638.928 163.665C621.983 163.665 614.482 182.56 614.482 205.623C614.482 244.247 631.15 250.082 639.761 250.082Z" fill="#00477F"/>
</g>
<mask id="mask6_1_7" style="mask-type:luminance" maskUnits="userSpaceOnUse" x="0" y="0" width="1814" height="339">
<path d="M1814 0H0V339H1814V0Z" fill="white"/>
</mask>
<g mask="url(#mask6_1_7)">
<path d="M735.045 156.44L791.715 216.46V173.668C791.715 167.555 786.159 162.275 778.659 161.998V156.44H816.439V161.998C808.938 162.275 803.383 167.277 803.383 173.668V256.751H788.104C784.215 256.751 781.159 252.861 777.27 248.415L720.322 187.284V239.245C720.322 247.581 724.211 250.916 733.378 251.196V256.754H696.154V251.196C705.321 250.916 709.21 247.581 709.21 239.245V175.613C709.21 164.776 702.543 162.275 697.265 161.998V156.44H735.045Z" fill="#00477F"/>
</g>
<mask id="mask7_1_7" style="mask-type:luminance" maskUnits="userSpaceOnUse" x="0" y="0" width="1814" height="339">
<path d="M1814 0H0V339H1814V0Z" fill="white"/>
</mask>
<g mask="url(#mask7_1_7)">
<path d="M422.248 256.473V250.916C413.081 250.638 409.192 247.303 409.192 238.967V173.39C409.192 167.274 414.748 162.275 422.248 161.995V156.437H366.689V161.995C374.19 162.273 379.745 167.274 379.745 173.39V238.967C379.745 247.303 375.856 250.638 366.689 250.916V256.473H422.248Z" fill="#00477F"/>
</g>
<mask id="mask8_1_7" style="mask-type:luminance" maskUnits="userSpaceOnUse" x="0" y="0" width="1814" height="339">
<path d="M1814 0H0V339H1814V0Z" fill="white"/>
</mask>
<g mask="url(#mask8_1_7)">
<path d="M211.68 219.239L200.568 188.392L187.511 219.239H211.68ZM209.735 256.473V250.916C219.18 250.916 221.402 246.748 218.902 239.523L215.013 228.408H183.345C177.511 242.021 159.176 261.753 127.786 261.753H127.23C90.0055 261.753 56.6701 236.744 56.6701 189.784C56.6701 158.385 75.0046 120.317 134.175 120.317C158.065 120.317 180.011 128.375 180.011 128.375V161.442H168.344C167.788 159.497 166.955 132.543 135.842 132.543C110.285 132.543 97.7838 155.884 97.506 188.117C97.2282 222.295 112.507 245.08 138.342 245.08C148.898 245.08 164.732 237.853 174.455 218.683C174.455 218.683 190.289 187.284 202.512 155.882H220.291C227.792 173.39 246.126 222.295 251.96 237.022C255.016 244.803 257.238 248.693 263.072 248.693C267.516 248.415 269.461 243.691 269.739 241.468V173.668C269.739 163.387 263.072 161.998 257.238 161.72V155.884H322.52C336.132 155.884 353.077 157.552 353.077 180.34C353.077 198.954 336.687 203.122 330.02 205.067V205.623C337.521 210.903 348.077 233.688 370.856 265.921C373.356 268.699 378.912 279.533 391.413 278.425V284.538H355.577C342.521 284.538 339.187 272.587 333.076 262.028C322.798 243.966 311.686 218.958 300.296 200.896C300.296 200.896 304.741 201.452 306.963 200.896C318.075 197.84 321.131 189.782 321.131 181.726C321.131 170.609 314.186 164.774 306.408 164.774H299.463V240.632C299.463 247.301 303.907 250.913 311.686 251.194V256.473H209.735Z" fill="#00477F"/>
</g>
<mask id="mask9_1_7" style="mask-type:luminance" maskUnits="userSpaceOnUse" x="0" y="0" width="1814" height="339">
<path d="M1814 0H0V339H1814V0Z" fill="white"/>
</mask>
<g mask="url(#mask9_1_7)">
<path d="M952.281 216.738L947.558 243.413C946.725 247.303 943.113 248.418 937.002 250.641C931.726 252.308 916.448 257.587 900.888 257.587C853.663 257.587 826.44 232.579 826.44 187.839C826.44 158.385 841.996 119.762 904.222 119.484C921.168 119.484 930.057 122.818 939.224 125.875C944.502 127.542 946.725 130.321 946.725 133.377V157.83H940.891C933.946 143.936 924.223 126.986 905.333 126.986C882.554 126.986 868.109 151.716 868.109 186.172C867.553 221.462 877.832 250.082 904.222 250.082C920.89 250.082 936.446 236.189 946.447 216.738H952.281Z" fill="#569FD3"/>
</g>
<mask id="mask10_1_7" style="mask-type:luminance" maskUnits="userSpaceOnUse" x="0" y="0" width="1814" height="339">
<path d="M1814 0H0V339H1814V0Z" fill="white"/>
</mask>
<g mask="url(#mask10_1_7)">
<path d="M1389.25 226.185L1385.64 246.47C1384.81 249.526 1382.31 250.357 1377.59 252.027C1373.7 253.416 1362.03 257.304 1350.09 257.304C1314.25 257.304 1293.42 238.134 1293.42 204.231C1293.42 182.001 1305.36 152.267 1352.59 152.267C1365.37 152.267 1372.03 154.77 1379.26 157.271C1383.42 158.66 1384.81 160.603 1384.81 162.828V181.448H1380.37C1375.08 170.889 1367.58 158.107 1353.14 158.107C1335.64 158.107 1324.81 177.002 1324.81 203.119C1324.81 229.517 1332.3 251.469 1352.59 251.469C1365.09 251.469 1377.31 240.91 1384.81 226.182L1389.25 226.185Z" fill="#569FD3"/>
</g>
<mask id="mask11_1_7" style="mask-type:luminance" maskUnits="userSpaceOnUse" x="0" y="0" width="1814" height="339">
<path d="M1814 0H0V339H1814V0Z" fill="white"/>
</mask>
<g mask="url(#mask11_1_7)">
<path d="M1011.45 245.914C997.283 245.914 997.008 239.801 997.008 233.132V172.279C997.008 166.166 1002.56 160.886 1010.06 160.608V155.051H955.058V160.608C962.559 160.886 968.115 165.888 968.115 172.004V237.303C968.115 245.639 964.226 248.97 955.058 249.251V254.808H1042.84L1047.29 217.574H1039.79C1039.79 218.127 1035.34 245.914 1011.45 245.914Z" fill="#569FD3"/>
</g>
<mask id="mask12_1_7" style="mask-type:luminance" maskUnits="userSpaceOnUse" x="0" y="0" width="1814" height="339">
<path d="M1814 0H0V339H1814V0Z" fill="white"/>
</mask>
<g mask="url(#mask12_1_7)">
<path d="M1294.52 255.084V249.526C1285.36 249.248 1281.47 245.914 1281.47 237.578V172.279C1281.47 166.166 1287.02 160.886 1294.52 160.608V155.051H1238.96V160.608C1246.47 160.886 1252.02 165.888 1252.02 172.001V237.3C1252.02 245.636 1248.13 248.968 1238.96 249.248V254.806L1294.52 255.084Z" fill="#569FD3"/>
</g>
<mask id="mask13_1_7" style="mask-type:luminance" maskUnits="userSpaceOnUse" x="0" y="0" width="1814" height="339">
<path d="M1814 0H0V339H1814V0Z" fill="white"/>
</mask>
<g mask="url(#mask13_1_7)">
<path d="M1106.18 255.361V249.804C1097.01 249.523 1093.12 246.189 1093.12 237.853V172.557C1093.12 166.446 1098.68 161.445 1106.18 160.889V155.331H1050.62V160.889C1058.12 161.167 1063.68 166.166 1063.68 172.281V237.581C1063.68 245.917 1059.79 249.251 1050.62 249.529V255.086L1106.18 255.361Z" fill="#569FD3"/>
</g>
<mask id="mask14_1_7" style="mask-type:luminance" maskUnits="userSpaceOnUse" x="0" y="0" width="1814" height="339">
<path d="M1814 0H0V339H1814V0Z" fill="white"/>
</mask>
<g mask="url(#mask14_1_7)">
<path d="M1152.29 155.329L1208.96 215.071V172.279C1208.96 166.166 1203.41 161.164 1195.91 160.886V155.329H1233.69V160.886C1226.19 161.164 1220.63 166.166 1220.63 172.557V255.639H1205.35C1201.47 255.639 1198.41 251.749 1194.52 247.303L1137.57 186.172V238.134C1137.57 246.47 1141.46 249.804 1150.63 250.082V255.639H1113.4V250.082C1122.57 249.804 1126.46 246.47 1126.46 238.134V174.78C1126.46 163.943 1119.79 161.442 1114.52 161.164V155.607L1152.29 155.329Z" fill="#569FD3"/>
</g>
</g>
<defs>
<clipPath id="clip0_1_7">
<rect width="1814" height="339" fill="white"/>
</clipPath>
</defs>
</svg>
